<svg xmlns="http://www.w3.org/2000/svg" xmlns:xlink="http://www.w3.org/1999/xlink" viewBox="0 0 86.67 86.67"><defs><style>.cls-1,.cls-2{stroke:#231815;stroke-miterlimit:10;}.cls-1{fill:url(#未命名的渐变_14);}.cls-2{fill:url(#未命名的渐变_59);}.cls-3{fill:none;}.cls-4{fill:#319a38;}.cls-5{fill:#e5f1d7;}.cls-6{fill:#050000;}</style><radialGradient id="未命名的渐变_14" cx="43.33" cy="43.33" r="42.83" gradientUnits="userSpaceOnUse"><stop offset="0" stop-color="#fff"/><stop offset="1" stop-color="#006934"/></radialGradient><radialGradient id="未命名的渐变_59" cx="43.33" cy="43.33" r="32.17" gradientUnits="userSpaceOnUse"><stop offset="0" stop-color="#8ed0d8"/><stop offset="0.99" stop-color="#22ac38"/></radialGradient></defs><title>资源 1</title><g id="图层_2" data-name="图层 2"><g id="图层_1-2" data-name="图层 1"><circle class="cls-1" cx="43.33" cy="43.33" r="42.83"/><circle class="cls-2" cx="43.33" cy="43.33" r="32.17"/><path class="cls-3" d="M59.1,71l-3.92-6.86-1-1.79-.64-1.11-1.09-1.91-3.89-6.8a10.08,10.08,0,0,1-5.49,1.36c-.24,0-.48,0-.73,0s-.47-.08-.71-.11a13.23,13.23,0,0,1-1.39-.3,11.86,11.86,0,0,1-2.57-1.22L33.4,58.76,32.21,60.6l-.7,1.08-1.12,1.74-4.28,6.63A31.86,31.86,0,0,0,59.1,71Z"/><path class="cls-4" d="M31.64,60.06a21.69,21.69,0,0,0,5.6,2.78,23.2,23.2,0,0,0,6.2.92A20.4,20.4,0,0,0,55.2,60l-.45-.63A19.56,19.56,0,0,1,43.43,63a21.75,21.75,0,0,1-6-.89,20.89,20.89,0,0,1-5.4-2.66Z"/><path class="cls-4" d="M30.83,61.22l-.37.53a23.67,23.67,0,0,0,6.17,3,25,25,0,0,0,6.82,1A22.48,22.48,0,0,0,56.4,61.64L56,61.11,56,61a21.69,21.69,0,0,1-12.51,4,24.49,24.49,0,0,1-6.58-1,23.33,23.33,0,0,1-6-3Z"/><path class="cls-5" d="M31.56,60.17l-.66.94a23.33,23.33,0,0,0,6,3,24.49,24.49,0,0,0,6.58,1A21.69,21.69,0,0,0,56,61l-.67-.93L55.2,60a20.4,20.4,0,0,1-11.76,3.8,23.2,23.2,0,0,1-6.2-.92,21.69,21.69,0,0,1-5.6-2.78Z"/><path class="cls-6" d="M51.14,59.81a18.11,18.11,0,0,0,2.78-1.64l3.31,4.62a25.31,25.31,0,0,1-3.65,2.15Z"/><path class="cls-4" d="M50,60.34a15.65,15.65,0,0,0,1.45-.65L54,64.78c-.62.3-1.26.59-1.91.84Z"/><path class="cls-6" d="M32.82,58.37l-.74,1.06a20.89,20.89,0,0,0,5.4,2.66,21.75,21.75,0,0,0,6,.89,19.56,19.56,0,0,0,11.32-3.65l-.75-1-.08-.11a18.06,18.06,0,0,1-10.5,3.39,20.6,20.6,0,0,1-5.52-.82,19.75,19.75,0,0,1-5-2.47Z"/><path class="cls-6" d="M29.64,62.91a25.48,25.48,0,0,0,6.57,3.25,26.55,26.55,0,0,0,7.24,1.08,23.9,23.9,0,0,0,13.78-4.45l-.83-1.15a22.48,22.48,0,0,1-12.95,4.18,25,25,0,0,1-6.82-1,23.67,23.67,0,0,1-6.17-3Z"/><path class="cls-3" d="M23.34,68.06l5-6.14,1.3-1.61.81-1,1.38-1.71,4.92-6.09A10.67,10.67,0,0,1,33,41.23l-7.67-1.55-2.16-.44L21.93,39l-2-.41L12.16,37a31.92,31.92,0,0,0,11.18,31Z"/><path class="cls-6" d="M25.66,38.44l-1.25-.34a19.14,19.14,0,0,0-.69,6A18.89,18.89,0,0,0,24.86,50a21.84,21.84,0,0,0,1.22,2.76,23.31,23.31,0,0,0,1.66,2.52,19.52,19.52,0,0,0,4.34,4.17l.74-1.06.08-.11a17.63,17.63,0,0,1-4-3.87,20.49,20.49,0,0,1-1.55-2.33A20,20,0,0,1,26.2,49.5,17,17,0,0,1,25.14,44a17.28,17.28,0,0,1,.64-5.54Z"/><path class="cls-6" d="M20.31,37a23.15,23.15,0,0,0-.84,7.26,22.65,22.65,0,0,0,1.39,7.19,25.76,25.76,0,0,0,1.48,3.36,27.08,27.08,0,0,0,2,3.07,23.92,23.92,0,0,0,5.28,5.06l.82-1.16a22.5,22.5,0,0,1-5-4.77,25.13,25.13,0,0,1-1.9-2.88,24.69,24.69,0,0,1-1.4-3.16,22.63,22.63,0,0,1-.51-13.59Z"/><path class="cls-4" d="M23.66,37.89A19.75,19.75,0,0,0,23,44.1a19.17,19.17,0,0,0,1.18,6.14,21.59,21.59,0,0,0,1.27,2.87,20.82,20.82,0,0,0,1.73,2.62,19.72,19.72,0,0,0,4.51,4.33l.44-.63a19.52,19.52,0,0,1-4.34-4.17,23.31,23.31,0,0,1-1.66-2.52A21.84,21.84,0,0,1,24.86,50a18.89,18.89,0,0,1-1.14-5.9,19.14,19.14,0,0,1,.69-6Z"/><path class="cls-4" d="M22.31,37.52l-.63-.17a22.63,22.63,0,0,0,.51,13.59,24.69,24.69,0,0,0,1.4,3.16A25.13,25.13,0,0,0,25.49,57a22.5,22.5,0,0,0,5,4.77l.37-.53.07-.11a21.55,21.55,0,0,1-4.79-4.6,23.51,23.51,0,0,1-1.83-2.79,22.32,22.32,0,0,1-1.35-3,20.51,20.51,0,0,1-1.26-6.53,21,21,0,0,1,.76-6.6Z"/><path class="cls-5" d="M23.54,37.86l-1.11-.31a21,21,0,0,0-.76,6.6,20.51,20.51,0,0,0,1.26,6.53,22.32,22.32,0,0,0,1.35,3,23.51,23.51,0,0,0,1.83,2.79,21.55,21.55,0,0,0,4.79,4.6l.66-.94.08-.11a19.72,19.72,0,0,1-4.51-4.33,20.82,20.82,0,0,1-1.73-2.62,21.59,21.59,0,0,1-1.27-2.87A19.17,19.17,0,0,1,23,44.1a19.75,19.75,0,0,1,.71-6.21Z"/><path class="cls-3" d="M13.36,32.75l7.45,2.63,2,.69L24,36.5l2.07.73,7.38,2.6a10.71,10.71,0,0,1,3.25-4.65,12.27,12.27,0,0,1,2.44-1.49,10.43,10.43,0,0,1,2.74-.76l-1.08-7.75L40.46,23l-.18-1.27L40,19.68l-1.1-7.82a31.82,31.82,0,0,0-8.33,2.35,33.6,33.6,0,0,0-7.38,4.52A31.92,31.92,0,0,0,13.36,32.75Z"/><path class="cls-6" d="M42,25,42,23.75a19.73,19.73,0,0,0-11.06,4.38,20.92,20.92,0,0,0-4,4.49,19.34,19.34,0,0,0-2.47,5.48l1.25.34.12,0a18,18,0,0,1,2.29-5.09,19.63,19.63,0,0,1,3.72-4.16,18.22,18.22,0,0,1,10.26-4.06Z"/><path class="cls-6" d="M41.65,19.51a24,24,0,0,0-13.46,5.33,25.58,25.58,0,0,0-4.88,5.45,23.77,23.77,0,0,0-3,6.68l1.37.38a22.08,22.08,0,0,1,2.82-6.28,24.19,24.19,0,0,1,4.59-5.14,22.54,22.54,0,0,1,12.66-5Z"/><path class="cls-4" d="M41.89,23A20.47,20.47,0,0,0,30.4,27.53a21.76,21.76,0,0,0-4.17,4.66,20.05,20.05,0,0,0-2.57,5.7l.75.21a19.34,19.34,0,0,1,2.47-5.48,20.92,20.92,0,0,1,4-4.49A19.73,19.73,0,0,1,42,23.75Z"/><path class="cls-4" d="M41.79,21.58l0-.65a22.54,22.54,0,0,0-12.66,5,24.19,24.19,0,0,0-4.59,5.14,22.08,22.08,0,0,0-2.82,6.28l.63.17.12,0a21.21,21.21,0,0,1,2.73-6.06,23.18,23.18,0,0,1,4.43-4.95A21.75,21.75,0,0,1,41.8,21.7Z"/><path class="cls-5" d="M41.88,22.85,41.8,21.7a21.75,21.75,0,0,0-12.21,4.84,23.18,23.18,0,0,0-4.43,4.95,21.21,21.21,0,0,0-2.73,6.06l1.11.31.12,0a20.05,20.05,0,0,1,2.57-5.7,21.76,21.76,0,0,1,4.17-4.66A20.47,20.47,0,0,1,41.89,23Z"/><path class="cls-3" d="M43.3,11.53V32.8a10.64,10.64,0,0,1,9.35,5.68l6.94-3.63,1.94-1,1.14-.59,1.83-1,7-3.66A31.9,31.9,0,0,0,43.3,11.53Z"/><path class="cls-6" d="M60.16,36l1.18-.52a19.73,19.73,0,0,0-7.84-8.94,18.66,18.66,0,0,0-5.56-2.29,19.15,19.15,0,0,0-6-.49L42,25v.13a17.93,17.93,0,0,1,5.56.46,17,17,0,0,1,5.15,2.13A18.21,18.21,0,0,1,60,36.05Z"/><path class="cls-6" d="M65.24,33.78a23.91,23.91,0,0,0-9.53-10.87,22.56,22.56,0,0,0-6.77-2.8,23.24,23.24,0,0,0-7.29-.6l.1,1.42a22,22,0,0,1,6.86.56A21.24,21.24,0,0,1,55,24.12a22.57,22.57,0,0,1,9,10.23Z"/><path class="cls-4" d="M62.05,35.17a20.48,20.48,0,0,0-8.15-9.29,18.88,18.88,0,0,0-5.78-2.38A19.78,19.78,0,0,0,41.89,23l.06.78a19.15,19.15,0,0,1,6,.49,18.66,18.66,0,0,1,5.56,2.29,19.73,19.73,0,0,1,7.84,8.94Z"/><path class="cls-4" d="M63.35,34.61l.59-.26a22.57,22.57,0,0,0-9-10.23,21.24,21.24,0,0,0-6.36-2.63,22,22,0,0,0-6.86-.56l0,.65v.12a21.37,21.37,0,0,1,6.62.55,20.46,20.46,0,0,1,6.15,2.54,21.8,21.8,0,0,1,8.66,9.87Z"/><path class="cls-5" d="M62.17,35.12l1.06-.46a21.8,21.8,0,0,0-8.66-9.87,20.46,20.46,0,0,0-6.15-2.54,21.37,21.37,0,0,0-6.62-.55l.08,1.15V23a19.78,19.78,0,0,1,6.23.52,18.88,18.88,0,0,1,5.78,2.38,20.48,20.48,0,0,1,8.15,9.29Z"/><path class="cls-3" d="M60.66,37.33l-7.39,2.56a2.78,2.78,0,0,1,.2.68c.06.23.14.46.19.69a13.3,13.3,0,0,1,.16,1.43,9.52,9.52,0,0,1-.19,2.87,10.68,10.68,0,0,1-2.64,5L66.44,65.18a31.79,31.79,0,0,0,8-15.17,30.37,30.37,0,0,0,.62-8.6,33,33,0,0,0-.53-4.3c-.14-.71-.34-1.41-.51-2.11a18.53,18.53,0,0,0-.64-2.08L66,35.47Z"/><path class="cls-6" d="M61.28,47.78l1.25.31a20.08,20.08,0,0,0-1.07-12.66L60.28,36l-.12,0a18.67,18.67,0,0,1,1,11.75Z"/><path class="cls-6" d="M66.67,49.12a24.42,24.42,0,0,0-1.31-15.39l-1.3.57a23,23,0,0,1,1.23,14.47Z"/><path class="cls-4" d="M63.29,48.28a20.8,20.8,0,0,0-1.12-13.16l-.71.31a20.08,20.08,0,0,1,1.07,12.66Z"/><path class="cls-4" d="M64.66,48.62l.63.15A23,23,0,0,0,64.06,34.3l-.6.26-.12,0a22.15,22.15,0,0,1,1.19,14Z"/><path class="cls-5" d="M63.42,48.31l1.11.28a22.15,22.15,0,0,0-1.19-14l-1.05.46-.12,0a20.8,20.8,0,0,1,1.12,13.16Z"/><path class="cls-3" d="M53.27,39.89a2.78,2.78,0,0,1,.2.68c.06.23.14.46.19.69a13.3,13.3,0,0,1,.16,1.43,9.52,9.52,0,0,1-.19,2.87,10.68,10.68,0,0,1-2.64,5L66.44,65.18a31.79,31.79,0,0,0,8-15.17,30.37,30.37,0,0,0,.62-8.6,33,33,0,0,0-.53-4.3c-.14-.71-.34-1.41-.51-2.11a18.53,18.53,0,0,0-.64-2.08Z"/><path class="cls-3" d="M58.88,57.69a17.39,17.39,0,0,0,.06-9,13.2,13.2,0,0,0-3.84-6.36"/><path class="cls-6" d="M65.89,42.2l5.63-.27a23,23,0,0,1-10.46,13,16.13,16.13,0,0,0-3.67-12.28l5.67-.29,0-.67-1.41.12-6.51.54a13.2,13.2,0,0,1,3.84,6.36,17.39,17.39,0,0,1-.06,9,22,22,0,0,0,8.89-6,26.73,26.73,0,0,0,6-10.95l-6.46.54-1.41.12Z"/><path class="cls-4" d="M57.39,42.63a16.13,16.13,0,0,1,3.67,12.28,23,23,0,0,0,10.46-13l-5.63.27-.78,0,0,.3a2,2,0,0,1,1,.77,2.32,2.32,0,0,1,.32,1.32,2,2,0,0,1-2.13,2,2.08,2.08,0,0,1-1.7-2.18A2,2,0,0,1,63,43.31a2,2,0,0,1,.88-.72v-.28l-.78,0Z"/><path class="cls-5" d="M62.58,44.42a2.08,2.08,0,0,0,1.7,2.18,2,2,0,0,0,2.13-2,2.32,2.32,0,0,0-.32-1.32,2,2,0,0,0-1-.77,1.74,1.74,0,0,0-.65-.1,1.94,1.94,0,0,0-.63.15,2,2,0,0,0-.88.72A2,2,0,0,0,62.58,44.42Z"/></g></g></svg>